<svg xmlns="http://www.w3.org/2000/svg" width="144" height="139" viewBox="0 0 144 139" fill="none">
  <path  d="M88.2197 11.9944C90.3169 4.63218 98.0775 0.249347 104.898 3.72573C116.199 9.48624 125.843 18.1919 132.744 29.0326C142.145 43.7998 145.801 61.5025 143.021 78.7857C140.24 96.0688 131.215 111.731 117.658 122.805C104.1 133.878 86.9505 139.593 69.4602 138.867C51.9699 138.14 35.3539 131.022 22.7613 118.862C10.1687 106.702 2.47466 90.345 1.13727 72.8907C-0.200107 55.4365 4.91216 38.0981 15.5052 24.1616C23.2815 13.9307 33.6149 6.05505 45.3551 1.25187C52.4401 -1.64678 59.8104 3.36471 61.2898 10.8755C64.1041 25.1646 84.2297 26.0008 88.2197 11.9944Z" fill="#4688F0"/>
</svg>