<svg xmlns="http://www.w3.org/2000/svg" fill="none" viewBox="0.49 0.49 195.02 195.02">
<path id="Ellipse 14" opacity="0.1" d="M51.1936 146.652C39.7053 158.59 20.1877 159.058 12.2888 144.494C5.8279 132.581 1.8678 119.354 0.791646 105.625C-1.07391 81.8239 5.85681 58.1657 20.2703 39.1339C34.6837 20.102 55.5783 7.01909 78.994 2.36463C102.41 -2.28984 126.719 1.80758 147.316 13.8803C167.912 25.9531 183.364 45.1622 190.742 67.8672C198.121 90.5721 196.914 115.195 187.35 137.069C177.785 158.944 160.529 176.549 138.85 186.55C126.345 192.318 112.87 195.325 99.3187 195.508C82.7517 195.731 73.6247 178.473 78.429 162.616L91.2046 120.45C92.7849 115.234 98.7467 112.623 103.695 110.34C106.715 108.947 109.119 106.495 110.452 103.447C111.784 100.4 111.952 96.9695 110.924 93.8064C109.897 90.6433 107.744 87.9672 104.875 86.2853C102.005 84.6034 98.6186 84.0326 95.3565 84.681C92.0944 85.3295 89.1835 87.1521 87.1755 89.8035C85.1675 92.4548 84.202 95.7507 84.4619 99.0665C84.8878 104.5 85.5223 110.977 81.7435 114.904L51.1936 146.652Z" fill="#FABB2D"/>
</svg>