<svg xmlns="http://www.w3.org/2000/svg" fill="none" viewBox="0.49 0.49 195.02 188.94">
<path id="Ellipse 14" opacity="0.1" d="M91.5239 165.205C89.9333 181.697 74.9261 194.184 59.6902 187.674C47.2281 182.349 35.9103 174.441 26.5406 164.348C10.2978 146.851 1.0382 124.004 0.516596 100.135C-0.00501726 76.2674 8.24764 53.0372 23.7105 34.8477C39.1733 16.6582 60.7718 4.77327 84.4126 1.44547C108.053 -1.88232 132.093 3.57825 151.977 16.7923C171.86 30.0063 186.205 50.0555 192.293 73.1401C198.38 96.2247 195.788 120.74 185.007 142.041C178.787 154.329 170.092 165.054 159.584 173.612C146.738 184.076 128.867 176.216 122.785 160.804L115.1 141.328C111.128 131.261 117.188 119.845 122.075 110.188C125.058 104.295 125.775 97.5125 124.091 91.1258C122.407 84.7391 118.438 79.1922 112.937 75.5363C107.436 71.8805 100.785 70.3697 94.2443 71.2904C87.7038 72.2111 81.7282 75.4992 77.4502 80.5316C73.1722 85.564 70.889 91.991 71.0333 98.5944C71.1776 105.198 73.7394 111.519 78.2332 116.36C85.5966 124.291 94.5727 133.591 93.5338 144.364L91.5239 165.205Z" fill="#3AA856"/>
</svg>