<svg width="86" height="86" viewBox="0 0 86 86" fill="none" xmlns="http://www.w3.org/2000/svg">
<path id="Ellipse 9" d="M16.8226 14.0401C15.333 12.3896 15.4533 9.8265 17.2375 8.49986C24.442 3.14281 33.1925 0.185983 42.2391 0.115612C52.6331 0.0347673 62.6956 3.76981 70.5195 10.6129C78.3434 17.4559 83.3851 26.9314 84.689 37.2436C85.9929 47.5558 83.4684 57.988 77.594 66.5631C71.7196 75.1382 62.9034 81.2603 52.8165 83.7691C42.7295 86.2779 32.0726 84.999 22.8656 80.175C13.6586 75.3509 6.54121 67.3167 2.86239 57.5953C-0.339544 49.1339 -0.742948 39.9061 1.65025 31.2531C2.24292 29.1102 4.5895 28.0723 6.66666 28.8651C8.74381 29.658 9.76 31.9817 9.21504 34.1372C7.49669 40.934 7.88876 48.129 10.3926 54.7457C13.3738 62.6235 19.1414 69.134 26.6023 73.0432C34.0633 76.9524 42.6991 77.9887 50.8731 75.9557C59.0472 73.9227 66.1914 68.9617 70.9517 62.0128C75.7121 55.0639 77.7578 46.6101 76.7012 38.2536C75.6446 29.8971 71.5591 22.2185 65.2189 16.6732C58.8788 11.1279 50.7246 8.10124 42.3018 8.16675C35.2274 8.22178 28.3765 10.455 22.6592 14.5123C20.8461 15.799 18.3122 15.6907 16.8226 14.0401Z" fill="#FABB2D"/>
</svg>
