<svg width="86" height="84" viewBox="0 0 86 84" fill="none" xmlns="http://www.w3.org/2000/svg">
<path d="M52.11 5.31002C52.9021 2.08611 56.1812 0.0754883 59.2611 1.31463C66.9533 4.4095 73.6155 9.70913 78.3705 16.6082C84.2693 25.1666 86.8234 35.5916 85.5488 45.9074C84.2741 56.2232 79.2594 65.7131 71.4549 72.5783C63.6505 79.4435 53.5986 83.2071 43.2045 83.1557C32.8103 83.1044 22.7961 79.2417 15.0599 72.2997C7.32364 65.3577 2.4029 55.8188 1.23027 45.4909C0.0576327 35.1629 2.7146 24.7637 8.6976 16.264C13.5206 9.41224 20.2348 4.1787 27.9572 1.15999C31.0492 -0.0486666 34.3082 1.99425 35.0685 5.22583C35.8287 8.45741 33.7865 11.6411 30.767 13.0207C25.8907 15.2488 21.6551 18.742 18.5284 23.184C14.2396 29.2768 12.335 36.7313 13.1756 44.1346C14.0162 51.5379 17.5435 58.3757 23.089 63.3519C28.6346 68.3281 35.813 71.097 43.2639 71.1338C50.7147 71.1706 57.9201 68.4728 63.5146 63.5516C69.109 58.6304 72.7037 51.8279 73.6174 44.4332C74.5311 37.0385 72.7003 29.5656 68.4719 23.4307C65.3892 18.958 61.1883 15.4231 56.3343 13.147C53.3285 11.7376 51.3179 8.53393 52.11 5.31002Z" fill="#FABB2D"/>
</svg>
