<svg width="57" height="57" viewBox="0 0 57 57" fill="none" xmlns="http://www.w3.org/2000/svg">
<path id="Ellipse 3" opacity="0.9" d="M22.9006 3.95645C22.5611 2.51343 23.4553 1.05482 24.9241 0.854284C29.8905 0.176221 34.9657 0.83557 39.6175 2.78797C45.0972 5.08784 49.7079 9.06382 52.7885 14.1458C55.869 19.2278 57.2612 25.1547 56.7654 31.0768C56.2696 36.9988 53.9113 42.6118 50.0286 47.1108C46.1459 51.6098 40.9383 54.7638 35.1524 56.1205C29.3666 57.4772 23.2998 56.9669 17.8219 54.6628C12.3439 52.3587 7.73631 48.3792 4.65965 43.2949C2.04782 38.9787 0.653205 34.0545 0.59753 29.0423C0.581067 27.56 1.89319 26.462 3.37035 26.5868C4.84751 26.7117 5.92718 28.013 5.97699 29.4946C6.1074 33.3731 7.22811 37.1701 9.25255 40.5156C11.7421 44.6298 15.4706 47.85 19.9032 49.7144C24.3359 51.5788 29.2451 51.9917 33.9269 50.8939C38.6087 49.7961 42.8226 47.2439 45.9644 43.6034C49.1063 39.9628 51.0146 35.4209 51.4158 30.6289C51.817 25.8369 50.6904 21.0409 48.1977 16.9286C45.705 12.8163 41.9741 9.59902 37.54 7.738C33.9343 6.22468 30.0143 5.6714 26.1584 6.10972C24.6855 6.27716 23.2402 5.39946 22.9006 3.95645Z" fill="#3AA856"/>
</svg>
