<svg width="71" height="71" viewBox="0 0 71 71" fill="none" xmlns="http://www.w3.org/2000/svg">
<path d="M62.1439 26.9785C65.6767 25.841 69.5338 27.7891 69.9693 31.4749C70.691 37.5824 69.7791 43.8152 67.2675 49.5171C63.8463 57.2842 57.6945 63.5263 49.9781 67.0604C42.2617 70.5945 33.5169 71.1751 25.4011 68.692C17.2853 66.2089 10.3623 60.8347 5.94442 53.588C1.52649 46.3413 -0.0794509 37.7257 1.43096 29.374C2.94138 21.0222 7.46319 13.5148 14.1394 8.27451C20.8156 3.03421 29.1823 0.425184 37.6537 0.941906C43.8727 1.32124 49.8308 3.36573 54.9293 6.80495C58.0062 8.88046 57.971 13.2015 55.3416 15.8208C50.3392 20.804 55.4227 29.1425 62.1439 26.9785Z" fill="#E8453C"/>
</svg>
