<svg xmlns="http://www.w3.org/2000/svg" width="81" height="84" viewBox="0 0 81 84" fill="none">
<path opacity="0.9" d="M6.45494 34.91C2.11715 33.9529 -0.693132 29.6111 1.08178 25.539C4.0229 18.7913 8.72796 12.9003 14.7657 8.52361C22.9903 2.56173 33.1163 -0.175743 43.2246 0.829994C53.3328 1.83573 62.7209 6.51479 69.6096 13.9804C76.4982 21.446 80.4087 31.1793 80.5999 41.3356C80.7911 51.492 77.2498 61.3656 70.6471 69.0852C64.0443 76.8048 54.8391 81.834 44.7758 83.2195C34.7126 84.605 24.4907 82.2507 16.0475 76.6026C9.8493 72.4564 4.92581 66.7466 1.73277 60.1144C-0.194173 56.112 2.45068 51.6675 6.74937 50.5478C14.9276 48.4175 14.7075 36.7309 6.45494 34.91Z" fill="#3AA856"/>
</svg>