<svg xmlns="http://www.w3.org/2000/svg" width="115" height="85" viewBox="0 0 115 85" fill="none">
<path d="M18.1905 37.125C14.9639 36.413 12.8735 33.1835 14.1938 30.1545C16.3815 25.1353 19.8813 20.7533 24.3724 17.4978C30.4902 13.0631 38.0223 11.0268 45.5412 11.775C53.0601 12.5231 60.0433 16.0035 65.1674 21.5567C70.2914 27.1099 73.2002 34.3499 73.3424 41.9046C73.4846 49.4593 70.8505 56.8037 65.9391 62.5458C61.0277 68.2879 54.1805 72.0288 46.6951 73.0594C39.2097 74.09 31.6063 72.3388 25.3259 68.1375C20.7154 65.0534 17.0531 60.8062 14.678 55.8729C13.2447 52.8958 15.212 49.5898 18.4096 48.7569C24.4928 47.1724 24.3291 38.4794 18.1905 37.125Z" fill="#E8453C"/>
<path d="M68.9985 19.0312C67.8467 16.1836 69.2207 12.887 72.2286 12.2642C75.3535 11.6173 78.571 11.4566 81.7663 11.7982C86.8129 12.3377 91.6485 14.1135 95.8449 16.9683C100.041 19.823 103.469 23.6686 105.824 28.1644C108.179 32.6602 109.389 37.6675 109.347 42.7427C109.304 47.8178 108.011 52.8042 105.582 57.2602C103.152 61.7161 99.6607 65.5041 95.4174 68.2885C91.1741 71.073 86.3095 72.768 81.2547 73.2234C78.054 73.5117 74.8397 73.2974 71.726 72.5985C68.7289 71.9257 67.41 68.6067 68.6091 65.7787C69.8082 62.9507 73.0873 61.7186 76.1372 62.0841C77.4995 62.2473 78.88 62.2686 80.2566 62.1446C83.4896 61.8534 86.6008 60.7693 89.3147 58.9885C92.0286 57.2076 94.2615 54.7849 95.8154 51.935C97.3694 49.0851 98.1965 45.8959 98.2236 42.65C98.2506 39.4041 97.4767 36.2016 95.9704 33.3262C94.4642 30.4508 92.272 27.9912 89.5881 26.1654C86.9043 24.3396 83.8115 23.2038 80.5839 22.8587C79.2095 22.7118 77.8288 22.7102 76.464 22.8507C73.4085 23.1653 70.1504 21.8787 68.9985 19.0312Z" fill="#FBC957"/>
</svg>