<svg xmlns="http://www.w3.org/2000/svg" width="122" height="118" viewBox="0 0 122 118" fill="none">
  <path opacity="0.5" d="M61.2838 21.6523C61.4752 7.44875 73.6419 -4.37509 86.5182 1.62306C90.2731 3.3722 93.8597 5.50929 97.216 8.01336C107.507 15.6915 115.108 26.4268 118.93 38.6845C122.753 50.9423 122.602 64.0948 118.5 76.2618C114.398 88.4287 106.553 98.9872 96.089 106.428C85.6245 113.868 73.0755 117.809 60.2361 117.688C47.3967 117.567 34.9242 113.39 24.6019 105.754C14.2796 98.1172 6.63586 87.4127 2.76357 75.1706C1.50069 71.178 0.66004 67.0886 0.241126 62.9675C-1.19541 48.8354 13.9684 41.2269 27.447 45.7109C43.9607 51.2046 61.0493 39.0544 61.2838 21.6523Z" fill="#4688F0"/>
</svg>