<svg xmlns="http://www.w3.org/2000/svg" width="91" height="89" viewBox="0 0 91 89" fill="none">
<path opacity="0.9" d="M39.6829 81.3548C38.9389 86.1452 34.4034 89.5048 29.8461 87.8518C22.2943 85.1127 15.5543 80.3935 10.3719 74.1185C3.31257 65.5707 -0.365718 54.7302 0.0341938 43.6514C0.434106 32.5727 4.88443 22.0255 12.5417 14.009C20.199 5.99247 30.5311 1.06359 41.5799 0.156502C52.6288 -0.750585 63.6264 2.42716 72.4887 9.08748C81.3509 15.7478 87.4618 25.4278 89.6633 36.293C91.8648 47.1582 90.0038 58.4535 84.4331 68.0382C80.3436 75.0744 74.4635 80.8297 67.4596 84.7638C63.2329 87.138 58.2101 84.5631 56.6948 79.9581C53.8119 71.1973 41.0984 72.2411 39.6829 81.3548Z" fill="#E8453C"/>
</svg>