<svg xmlns="http://www.w3.org/2000/svg" width="144" height="144" viewBox="0 0 144 144" fill="none">
  <path  d="M32.9692 28.796C27.8405 23.113 28.2415 14.2094 34.8061 10.2716C45.684 3.74662 58.1797 0.188453 71.0301 0.0884992C88.535 -0.0476745 105.482 6.24265 118.658 17.7673C131.835 29.2919 140.326 45.25 142.521 62.6171C144.717 79.9843 140.466 97.5535 130.573 111.995C120.679 126.437 105.832 136.747 88.8438 140.972C71.8559 145.198 53.9083 143.044 38.4024 134.919C22.8965 126.795 10.9099 113.264 4.71426 96.8921C0.166008 84.8731 -1.02938 71.9357 1.12616 59.4354C2.42698 51.8917 10.5847 48.3019 17.7365 51.0317C31.3426 56.2252 42.7265 39.6077 32.9692 28.796Z" fill="#FABB2D"/>
</svg>