<svg viewBox="0 0 86.20353698730469 86.20353698730469" fill="none" xmlns="http://www.w3.org/2000/svg">
<path d="M59.14 14.6457C61.9702 9.62409 68.4549 7.77158 72.6513 11.7235C77.9156 16.6811 81.8904 22.9243 84.137 29.915C87.4576 40.248 86.7577 51.4534 82.1771 61.2929C77.5964 71.1323 69.4723 78.8815 59.4275 82.9924C49.3828 87.1033 38.1568 87.2733 27.9921 83.4685C17.8275 79.6637 9.4724 72.1641 4.59589 62.4679C-0.28063 52.7717 -1.31956 41.5926 1.68661 31.1638C4.69278 20.735 11.5227 11.8242 20.8122 6.21134C27.0969 2.41403 34.1943 0.315384 41.42 0.0330161C47.1799 -0.192071 50.8543 5.46319 49.6915 11.109C48.5286 16.7548 42.8103 20.1413 37.2494 21.659C35.2817 22.196 33.3817 23.0055 31.6073 24.0776C26.8167 26.9722 23.2945 31.5674 21.7443 36.9455C20.194 42.3236 20.7298 48.0886 23.2446 53.0889C25.7594 58.0892 30.0681 61.9567 35.3099 63.9189C40.5518 65.881 46.341 65.7933 51.5211 63.6733C56.7011 61.5534 60.8907 57.5572 63.2529 52.483C65.6151 47.4088 65.9761 41.6302 64.2636 36.3015C63.6293 34.3278 62.7279 32.4696 61.5964 30.7725C58.3989 25.9764 56.3098 19.6674 59.14 14.6457Z" fill="currentColor"/>
</svg>