<svg width="130" height="134" viewBox="0 0 130 134" fill="none" xmlns="http://www.w3.org/2000/svg">
<path id="Ellipse 13" opacity="0.2" d="M125.742 76.5099C128.459 76.9425 130.312 79.524 129.638 82.1917C126.056 96.3688 118.004 109.12 106.654 118.439C94.0112 128.818 78.156 134.217 62.0931 133.611C46.0301 133.006 30.8756 126.439 19.5016 115.154C8.12763 103.87 1.32459 88.6527 0.381836 72.3864C-0.56092 56.12 4.42212 39.9351 14.3866 26.899C24.351 13.8629 38.6044 4.88149 54.4453 1.65701C70.2863 -1.56749 86.6141 1.18902 100.334 9.40407C112.679 16.7958 122.141 28.1445 127.317 41.6414C128.284 44.1608 126.843 46.9034 124.281 47.7496C121.622 48.628 118.782 47.1294 117.732 44.5325C113.263 33.4708 105.376 24.1764 95.17 18.0653C83.5131 11.0856 69.6407 8.74367 56.1819 11.4833C42.7231 14.2228 30.6131 21.8536 22.1471 32.9294C13.6811 44.0051 9.44745 57.7562 10.2484 71.5764C11.0494 85.3966 16.8294 98.3255 26.493 107.913C36.1566 117.5 49.0322 123.08 62.6796 123.594C76.327 124.109 89.7978 119.522 100.539 110.703C110.029 102.912 116.806 92.2952 119.92 80.4792C120.605 77.8797 123.087 76.0874 125.742 76.5099Z" fill="#3AA856"/>
</svg>