<svg width="70" height="71" viewBox="0 0 70 71" fill="none" xmlns="http://www.w3.org/2000/svg">
<path id="Ellipse 7" opacity="0.9" d="M12.8462 17.433C10.3748 15.4346 9.96445 11.7669 12.3438 9.65972C17.1946 5.36372 23.1847 2.48635 29.6526 1.41314C38.0254 0.0238568 46.6168 1.75443 53.7988 6.27686C60.9807 10.7993 66.254 17.7993 68.6193 25.9503C70.9846 34.1012 70.2774 42.8367 66.6319 50.5011C62.9864 58.1655 56.6558 64.2262 48.84 67.5345C41.0242 70.8429 32.2662 71.1691 24.226 68.4512C16.1857 65.7333 9.42191 60.1602 5.21643 52.7882C1.96773 47.0934 0.420104 40.6307 0.691928 34.1568C0.825257 30.9813 3.92951 28.9852 7.03929 29.6415C10.1491 30.2978 12.0611 33.3741 12.19 36.5498C12.3392 40.2256 13.3634 43.8418 15.2136 47.0852C18.0228 52.0095 22.541 55.7323 27.9117 57.5478C33.2825 59.3633 39.1327 59.1454 44.3535 56.9355C49.5744 54.7255 53.8031 50.6771 56.2382 45.5574C58.6734 40.4377 59.1457 34.6025 57.5658 29.1578C55.9858 23.7131 52.4633 19.0372 47.6659 16.0163C42.8685 12.9954 37.1295 11.8394 31.5366 12.7674C27.853 13.3786 24.4014 14.8659 21.4556 17.0697C18.9107 18.9735 15.3176 19.4314 12.8462 17.433Z" fill="#E8453C"/>
</svg>
