<svg width="70" height="66" viewBox="0 0 70 66" fill="none" xmlns="http://www.w3.org/2000/svg">
<path id="Ellipse 7" opacity="0.9" d="M31.7763 55.1514C30.5735 62.8955 23.0298 68.4113 16.4041 64.2257C13.325 62.2806 10.547 59.8469 8.18994 56.9929C2.78544 50.4489 -0.0305857 42.1496 0.27558 33.6679C0.581745 25.1862 3.98882 17.1116 9.85108 10.9743C15.7133 4.83699 23.6234 1.06354 32.0822 0.36909C40.5409 -0.325358 48.9605 2.10746 55.7453 7.20646C62.53 12.3055 67.2084 19.7163 68.8938 28.0345C70.5792 36.3527 69.1545 45.0001 64.8897 52.338C63.0296 55.5382 60.6858 58.3923 57.9651 60.8137C52.1108 66.0238 43.7685 61.8122 41.3188 54.3679L38.3104 45.2257C37.5222 42.8305 39.0857 40.2569 40.3528 38.0768C41.1261 36.7464 41.3844 35.1785 41.0788 33.6703C40.7732 32.1621 39.9249 30.8184 38.6948 29.8939C37.4646 28.9693 35.938 28.5282 34.4043 28.6542C32.8706 28.7801 31.4364 29.4643 30.3735 30.577C29.3106 31.6898 28.6929 33.1539 28.6373 34.6917C28.5818 36.2296 29.0924 37.7343 30.0723 38.9208C31.678 40.865 33.6403 43.1492 33.2533 45.6408L31.7763 55.1514Z" fill="#E8453C"/>
</svg>
